<?xml version="1.0" encoding="iso-8859-1"?>
<!-- Generator: Adobe Illustrator 19.0.0, SVG Export Plug-In . SVG Version: 6.00 Build 0)  -->
<svg version="1.1" id="Capa_1" xmlns="http://www.w3.org/2000/svg" xmlns:xlink="http://www.w3.org/1999/xlink" x="0px" y="0px"
	 viewBox="0 0 500.944 500.944" style="enable-background:new 0 0 500.944 500.944;" xml:space="preserve">
<g>
	<g>
		<g>
			<rect x="113.528" y="452.944" width="16" height="16"/>
			<rect x="145.528" y="452.944" width="16" height="16"/>
			<path d="M401.528,252.944c0-22.056-17.944-40-40-40h-108.76c13.408-21.488,20.76-46.504,20.76-72c0-74.992-61.008-136-136-136
				s-136,61.008-136,136c0,59.984,39.2,112.456,96,129.896v150.104h-32v40c0,22.056,17.944,40,40,40h288c22.056,0,40-17.944,40-40
				v-40h-32V252.944z M233.408,212.944h-41.216c10.232-20.536,15.944-41.984,17.056-64h47.944
				C255.68,172.288,247.536,194.192,233.408,212.944z M257.12,132.944h-47.976c-1.12-21.992-6.56-41.504-14.072-58.16
				c13.512-5.392,22.912-11.888,28.824-16.936C242.936,77.624,255.192,103.872,257.12,132.944z M211.992,47.016
				c-5.032,4.064-12.904,9.2-24.16,13.488c-8.904-15.768-19.04-28.312-27.536-37.328C179.568,26.896,197.176,35.248,211.992,47.016z
				 M145.528,31.088c7.64,7.8,17.456,19.352,26.288,34.192c-7.672,1.744-16.4,2.984-26.288,3.432V31.088z M145.528,84.696
				c12.968-0.544,24.336-2.296,34.096-4.848c7.112,15.224,12.344,33.096,13.504,53.096h-47.6V84.696z M145.528,148.944h47.72
				c-1.248,22.064-7.704,43.536-19.184,64h-28.536V148.944z M361.528,228.944c13.232,0,24,10.768,24,24v168h-16v-16h-16v16h-208
				v-160h208v128h16v-128c0-8.824-7.176-16-16-16h-208c-8.824,0-16,7.176-16,16v160h-16v-168c0-13.232,10.768-24,24-24H361.528z
				 M289.528,436.944v8c0,4.408-3.584,8-8,8h-64c-4.416,0-8-3.592-8-8v-8H289.528z M108.648,225.416
				c-12.496-18.464-24.832-44.592-26.688-76.472h47.568v64.808C121.376,215.416,114.184,219.608,108.648,225.416z M114.808,23.168
				c-8.48,9.024-18.632,21.528-27.552,37.352c-11.272-4.296-19.16-9.432-24.192-13.504C77.888,35.24,95.52,26.88,114.808,23.168z
				 M129.528,31.04v37.664c-9.936-0.448-18.696-1.696-26.392-3.456C111.976,50.416,121.864,38.848,129.528,31.04z M51.16,57.84
				c5.928,5.064,15.36,11.576,28.92,16.976c-3.368,7.464-6.4,15.416-8.784,23.984l15.424,4.288c2.312-8.32,5.328-16.04,8.704-23.248
				c9.768,2.552,21.144,4.312,34.112,4.848v48.256h-47.68c0.28-4.936,0.72-9.856,1.52-14.704l-15.8-2.584
				c-0.936,5.696-1.432,11.488-1.728,17.288h-47.92C19.864,103.872,32.12,77.624,51.16,57.84z M17.864,148.944h47.88
				c1.136,22.104,6.864,41.64,14.352,58.192c-13.624,5.44-23.064,11.944-28.984,17.016C31.92,204.192,19.776,177.776,17.864,148.944
				z M63.008,235.072c5.064-4.088,13.04-9.248,24.376-13.6c4.008,7.096,8.216,13.472,12.312,19.048
				c-1.288,3.928-2.168,8.056-2.168,12.424v1.168C84.832,249.648,73.216,243.16,63.008,235.072z M417.528,436.944v24
				c0,13.232-10.768,24-24,24h-288c-13.232,0-24-10.768-24-24v-24h112v8c0,13.232,10.768,24,24,24h64c13.232,0,24-10.768,24-24v-8
				H417.528z"/>
			<path d="M457.528,358.416v-89.472h-16v89.472c-9.288,3.312-16,12.112-16,22.528c0,13.232,10.768,24,24,24s24-10.768,24-24
				C473.528,370.528,466.816,361.728,457.528,358.416z M449.528,388.944c-4.416,0-8-3.592-8-8c0-4.408,3.584-8,8-8
				c4.416,0,8,3.592,8,8C457.528,385.352,453.944,388.944,449.528,388.944z"/>
			<path d="M73.528,292.944c0-13.232-10.768-24-24-24s-24,10.768-24,24c0,10.416,6.712,19.216,16,22.528v89.472h16v-89.472
				C66.816,312.16,73.528,303.36,73.528,292.944z M49.528,300.944c-4.416,0-8-3.592-8-8c0-4.408,3.584-8,8-8s8,3.592,8,8
				C57.528,297.352,53.944,300.944,49.528,300.944z"/>
			<path d="M249.528,276.944c-35.288,0-64,28.712-64,64c0,35.288,28.712,64,64,64c35.288,0,64-28.712,64-64
				C313.528,305.656,284.816,276.944,249.528,276.944z M201.528,340.944c0-23.736,17.336-43.448,40-47.28v43.968l-31.08,31.08
				C204.856,360.864,201.528,351.296,201.528,340.944z M249.528,388.944c-10.352,0-19.92-3.328-27.768-8.92l31.08-31.08h43.968
				C292.976,371.608,273.264,388.944,249.528,388.944z M257.528,332.944v-39.28c20.056,3.392,35.888,19.224,39.28,39.28H257.528z"/>
			<polygon points="393.528,76.944 497.528,76.944 497.528,60.944 377.528,60.944 377.528,80 323.416,52.944 377.528,25.888 
				377.528,44.944 497.528,44.944 497.528,28.944 393.528,28.944 393.528,0 287.64,52.944 393.528,105.888 			"/>
			<polygon points="499.416,164.944 393.528,112 393.528,140.944 289.528,140.944 289.528,156.944 409.528,156.944 409.528,137.888 
				463.64,164.944 409.528,192 409.528,172.944 289.528,172.944 289.528,188.944 393.528,188.944 393.528,217.888 			"/>
		</g>
	</g>
</g>
<g>
</g>
<g>
</g>
<g>
</g>
<g>
</g>
<g>
</g>
<g>
</g>
<g>
</g>
<g>
</g>
<g>
</g>
<g>
</g>
<g>
</g>
<g>
</g>
<g>
</g>
<g>
</g>
<g>
</g>
</svg>
