<?xml version="1.0" standalone="yes"?>

<svg version="1.1" viewBox="0.0 0.0 960.0 960.0" fill="none" stroke="none" stroke-linecap="square" stroke-miterlimit="10" xmlns="http://www.w3.org/2000/svg" xmlns:xlink="http://www.w3.org/1999/xlink"><clipPath id="p.0"><path d="m0 0l960.0 0l0 960.0l-960.0 0l0 -960.0z" clip-rule="nonzero"></path></clipPath><g clip-path="url(#p.0)"><path fill="#000000" fill-opacity="0.0" d="m0 0l960.0 0l0 960.0l-960.0 0z" fill-rule="evenodd"></path><path fill="#980122" d="m481.1541 -0.28464717l-479.70364 0l95.94073 823.34515l384.32947 137.19415z" fill-rule="evenodd"></path><path fill="#980122" d="m479.13232 -0.28464717l479.7036 0l-95.940735 823.34515l-384.32947 137.19415z" fill-rule="evenodd"></path><path fill="#000000" fill-opacity="0.1962" d="m847.1955 96.33261l92.1557 77.05844l-11.993713 89.338104l-9.001709 95.77362l-11.993713 108.637726l-25.477966 195.82709l-17.992432 160.094l-323.7975 114.352356l-154.40952 -107.2099l-1.4941711 -281.5923l-94.11502 -452.27914l278.5034 230.71689l246.12946 -230.71689z" fill-rule="evenodd"></path><path fill="#f3f3f3" d="m108.47996 99.919914l284.47845 468.21906l0 255.14069l167.34024 0l0 -256.24756l287.15588 -467.11218l-175.37256 0l-134.54156 220.27328l-58.90381 112.90387l-58.903748 -109.58319l-128.51733 -223.59396z" fill-rule="evenodd"></path><path stroke="#84001d" stroke-width="4.0" stroke-linejoin="round" stroke-linecap="butt" d="m108.47996 99.919914l284.47845 468.21906l0 255.14069l167.34024 0l0 -256.24756l287.15588 -467.11218l-175.37256 0l-134.54156 220.27328l-58.90381 112.90387l-58.903748 -109.58319l-128.51733 -223.59396z" fill-rule="evenodd"></path><path fill="#000000" fill-opacity="0.0962" d="m478.56573 -0.25463313l-479.7036 0l95.94073 823.34515l384.32947 137.19415z" fill-rule="evenodd"></path></g></svg>

