<?xml version="1.0" encoding="UTF-8" standalone="no"?>
<!-- Created with Inkscape (http://www.inkscape.org/) -->

<svg
   xmlns:dc="http://purl.org/dc/elements/1.1/"
   xmlns:cc="http://creativecommons.org/ns#"
   xmlns:rdf="http://www.w3.org/1999/02/22-rdf-syntax-ns#"
   xmlns:svg="http://www.w3.org/2000/svg"
   xmlns="http://www.w3.org/2000/svg"
   xmlns:xlink="http://www.w3.org/1999/xlink"
   xmlns:sodipodi="http://sodipodi.sourceforge.net/DTD/sodipodi-0.dtd"
   xmlns:inkscape="http://www.inkscape.org/namespaces/inkscape"
   width="161.06224mm"
   height="182.73767mm"
   viewBox="0 0 161.06224 182.73767"
   version="1.1"
   id="svg1586"
   inkscape:version="0.92.2 (5c3e80d, 2017-08-06)"
   sodipodi:docname="yallajs-logo.svg">
  <defs
     id="defs1580">
    <linearGradient
       inkscape:collect="always"
       xlink:href="#linearGradient1548"
       id="linearGradient1560"
       x1="-55.558395"
       y1="142.67168"
       x2="-227.67188"
       y2="336.35938"
       gradientUnits="userSpaceOnUse"
       gradientTransform="matrix(0.26458333,0,0,0.26458333,126.53351,28.749336)" />
    <linearGradient
       inkscape:collect="always"
       id="linearGradient1548">
      <stop
         style="stop-color:#b23136;stop-opacity:1"
         offset="0"
         id="stop1544" />
      <stop
         style="stop-color:#dc774c;stop-opacity:1"
         offset="1"
         id="stop1546" />
    </linearGradient>
    <linearGradient
       inkscape:collect="always"
       xlink:href="#linearGradient1548"
       id="linearGradient1566"
       x1="-195.46854"
       y1="158.55629"
       x2="-389.49112"
       y2="309.98486"
       gradientUnits="userSpaceOnUse"
       gradientTransform="matrix(0.26458333,0,0,0.26458333,127.03701,28.710196)" />
    <linearGradient
       inkscape:collect="always"
       xlink:href="#linearGradient1548"
       id="linearGradient1568"
       x1="-124.82031"
       y1="271.39062"
       x2="-326.37952"
       y2="327.54468"
       gradientUnits="userSpaceOnUse"
       gradientTransform="matrix(0.26458333,0,0,0.26458333,127.03701,28.529316)" />
    <linearGradient
       inkscape:collect="always"
       xlink:href="#linearGradient1548"
       id="linearGradient1562"
       x1="-17.795353"
       y1="228.02121"
       x2="61.635284"
       y2="188.02121"
       gradientUnits="userSpaceOnUse"
       gradientTransform="matrix(0.26458333,0,0,0.26458333,127.17064,27.947526)" />
    <linearGradient
       inkscape:collect="always"
       xlink:href="#linearGradient1548"
       id="linearGradient1542"
       gradientUnits="userSpaceOnUse"
       x1="230.44894"
       y1="346.42664"
       x2="-8.5714283"
       y2="441.09109"
       gradientTransform="matrix(0.26458333,0,0,0.26458333,126.90338,27.813896)" />
    <linearGradient
       inkscape:collect="always"
       xlink:href="#linearGradient1548"
       id="linearGradient1564"
       x1="-369.35742"
       y1="141.1778"
       x2="-123.38576"
       y2="141.1778"
       gradientUnits="userSpaceOnUse"
       gradientTransform="matrix(0.26458333,0,0,0.26458333,127.03701,28.891076)" />
    <linearGradient
       inkscape:collect="always"
       xlink:href="#linearGradient1548"
       id="linearGradient1558"
       x1="-211.42314"
       y1="429.85742"
       x2="195.3455"
       y2="435.57172"
       gradientUnits="userSpaceOnUse"
       gradientTransform="matrix(0.26458333,0,0,0.26458333,127.03701,27.915106)" />
  </defs>
  <sodipodi:namedview
     id="base"
     pagecolor="#ffffff"
     bordercolor="#666666"
     borderopacity="1.0"
     inkscape:pageopacity="0.0"
     inkscape:pageshadow="2"
     inkscape:zoom="0.7"
     inkscape:cx="-135.0737"
     inkscape:cy="278.53788"
     inkscape:document-units="mm"
     inkscape:current-layer="layer1"
     showgrid="false"
     inkscape:window-width="1920"
     inkscape:window-height="1017"
     inkscape:window-x="-8"
     inkscape:window-y="-8"
     inkscape:window-maximized="1" />
  <metadata
     id="metadata1583">
    <rdf:RDF>
      <cc:Work
         rdf:about="">
        <dc:format>image/svg+xml</dc:format>
        <dc:type
           rdf:resource="http://purl.org/dc/dcmitype/StillImage" />
        <dc:title></dc:title>
      </cc:Work>
    </rdf:RDF>
  </metadata>
  <g
     inkscape:label="Layer 1"
     inkscape:groupmode="layer"
     id="layer1"
     transform="translate(-23.412332,-31.006116)">
    <path
       style="opacity:1;fill:url(#linearGradient1558);fill-opacity:1;stroke:none;stroke-width:0.52916664;stroke-miterlimit:4;stroke-dasharray:none;stroke-opacity:1"
       d="m 156.72099,69.552356 a 37.293542,37.29351 0 0 0 -2.63809,0.093 37.293542,37.29351 0 0 0 -3.70055,0.44958 37.293542,37.29351 0 0 0 -2.38331,0.53486 37.293542,37.29351 0 0 0 -0.84646,0.18965 62.155888,62.155935 0 0 1 -0.84646,3.31452 62.155888,62.155935 0 0 1 -0.56224,2.20194 62.155888,62.155935 0 0 1 -2.1301,5.83633 62.155888,62.155935 0 0 1 -2.70268,5.59449 62.155888,62.155935 0 0 1 -3.24735,5.29684 62.155888,62.155935 0 0 1 -3.75998,4.94595 62.155888,62.155935 0 0 1 -4.23488,4.545984 62.155888,62.155935 0 0 1 -3.32383,2.91971 62.155888,62.155935 0 0 1 0.13901,3.92948 62.155888,62.155935 0 0 1 -0.31057,6.2053 62.155888,62.155935 0 0 1 -0.92811,6.14278 62.155888,62.155935 0 0 1 -0.89762,3.514 62.155888,62.155935 0 0 1 -0.63976,2.50631 62.155888,62.155935 0 0 1 -2.13062,5.83633 62.155888,62.155935 0 0 1 -2.70216,5.59449 62.155888,62.155935 0 0 1 -1.21026,1.97352 62.155888,62.155935 0 0 1 -2.03708,3.3228 62.155888,62.155935 0 0 1 -3.75998,4.94646 62.155888,62.155935 0 0 1 -4.2354,4.54598 62.155888,62.155935 0 0 1 -3.66954,3.22358 62.155888,62.155935 0 0 1 -0.99788,0.87643 62.155888,62.155935 0 0 1 -0.0119,0.008 62.155888,62.155935 0 0 0 1.09347,-1.43816 99.449461,99.449461 0 0 0 0.28784,-1.90428 99.449461,99.449461 0 0 0 0.29611,-5.92212 99.449461,99.449461 0 0 0 0.2005,-4.00595 99.449461,99.449461 0 0 0 -0.24908,-7.03471 99.449461,99.449461 0 0 0 -1.19786,-9.86865 99.449461,99.449461 0 0 0 -2.17041,-9.66969 62.155888,62.155935 0 0 1 -4.28501,0.9617 62.155888,62.155935 0 0 1 -6.167581,0.74879 62.155888,62.155935 0 0 1 -4.396629,0.15554 62.155888,62.155935 0 0 1 -6.20531,-0.31006 62.155888,62.155935 0 0 1 -6.143289,-0.92862 62.155888,62.155935 0 0 1 -2.835492,-0.72399 37.293542,37.29351 0 0 1 2.30219,0.84026 37.293542,37.29351 0 0 1 3.35638,1.6216 37.293542,37.29351 0 0 1 3.178101,1.94821 37.293542,37.29351 0 0 1 2.967781,2.25619 37.293542,37.29351 0 0 1 2.727478,2.54093 37.293542,37.29351 0 0 1 2.460321,2.80035 37.293542,37.29351 0 0 1 2.16834,3.03237 37.293542,37.29351 0 0 1 1.855179,3.23391 37.293542,37.29351 0 0 1 1.522391,3.40237 37.293542,37.29351 0 0 1 1.175639,3.53777 37.293542,37.29351 0 0 1 0.816491,3.63699 37.293542,37.29351 0 0 1 0.44907,3.70055 37.293542,37.29351 0 0 1 0.0935,2.63808 37.293542,37.29351 0 0 1 -0.18655,3.72329 37.293542,37.29351 0 0 1 -0.557072,3.68608 37.293542,37.29351 0 0 1 -0.46509,1.82108 37.293542,37.29351 0 0 1 -0.22996,0.90226 37.293542,37.29351 0 0 1 -0.226859,0.88832 37.293542,37.29351 0 0 1 -1.04076,2.85151 37.293542,37.29351 0 0 0 -0.279569,1.09502 37.293542,37.29351 0 0 0 -0.18501,0.72347 37.293542,37.29351 0 0 0 -0.55707,3.68608 37.293542,37.29351 0 0 0 -0.186031,3.72277 37.293542,37.29351 0 0 0 0.0935,2.63808 37.293542,37.29351 0 0 0 0.449069,3.70055 37.293542,37.29351 0 0 0 0.816489,3.63751 37.293542,37.29351 0 0 0 0.772562,2.32647 37.293542,37.29351 0 0 0 0.402558,1.2113 37.293542,37.29351 0 0 0 1.522902,3.40237 37.293542,37.29351 0 0 0 1.854668,3.23342 37.293542,37.29351 0 0 0 2.168863,3.03237 37.293542,37.29351 0 0 0 2.46032,2.80085 37.293542,37.29351 0 0 0 2.72748,2.54094 37.293542,37.29351 0 0 0 2.96726,2.25567 37.293542,37.29351 0 0 0 3.1781,1.94872 37.293542,37.29351 0 0 0 3.3569,1.6216 37.293542,37.29351 0 0 0 3.50159,1.27797 37.293542,37.29351 0 0 0 3.61219,0.92243 37.293542,37.29351 0 0 0 3.68608,0.55706 37.293542,37.29351 0 0 0 3.72277,0.18655 37.293542,37.29351 0 0 0 2.63808,-0.0935 37.293542,37.29351 0 0 0 3.68608,-0.44753 99.449461,99.449461 0 0 1 -1.65985,-2.89336 99.449461,99.449461 0 0 1 -4.06073,-9.07386 99.449461,99.449461 0 0 1 -3.13418,-9.43355 99.449461,99.449461 0 0 1 -2.17713,-9.69967 99.449461,99.449461 0 0 1 -1.19786,-9.86813 99.449461,99.449461 0 0 1 -0.24959,-7.03472 99.449461,99.449461 0 0 1 0.49712,-9.92859 99.449461,99.449461 0 0 1 1.48569,-9.82937 99.449461,99.449461 0 0 1 1.5813,-6.1929 99.449461,99.449461 0 0 1 0.87798,-3.43855 99.449461,99.449461 0 0 1 1.37046,-3.75429 99.449461,99.449461 0 0 1 2.03812,-5.58416 99.449461,99.449461 0 0 1 4.32377,-8.95087 99.449461,99.449461 0 0 1 5.19606,-8.47494 99.449461,99.449461 0 0 1 6.01617,-7.91373 99.449461,99.449461 0 0 1 6.77582,-7.273454 99.449461,99.449461 0 0 1 7.46828,-6.56084 99.449461,99.449461 0 0 1 8.08632,-5.7826 99.449461,99.449461 0 0 1 8.62273,-4.94595 99.449461,99.449461 0 0 1 0.39223,-0.1757 37.293542,37.29351 0 0 0 -0.43098,-0.32763 37.293542,37.29351 0 0 0 -3.17811,-1.94871 37.293542,37.29351 0 0 0 -3.35638,-1.62161 37.293542,37.29351 0 0 0 -3.50211,-1.27796 37.293542,37.29351 0 0 0 -3.61167,-0.92242 37.293542,37.29351 0 0 0 -3.68608,-0.55707 37.293542,37.29351 0 0 0 -3.72328,-0.18604 z"
       id="path1403"
       inkscape:connector-curvature="0" />
    <path
       style="opacity:1;fill:url(#linearGradient1564);fill-opacity:1;stroke:none;stroke-width:0.52899998;stroke-miterlimit:4;stroke-dasharray:none;stroke-opacity:1"
       d="m 31.328652,31.006196 a 62.155888,62.155935 0 0 0 -0.51419,2.01383 62.155888,62.155935 0 0 0 -0.9281,6.14329 62.155888,62.155935 0 0 0 -0.31058,6.20531 62.155888,62.155935 0 0 0 0.14624,4.14083 62.155888,62.155935 0 0 0 0.009,0.2558 62.155888,62.155935 0 0 0 0.7488,6.16758 62.155888,62.155935 0 0 0 0.45681,2.03502 62.155888,62.155935 0 0 0 0.90382,4.02715 62.155888,62.155935 0 0 0 0.4315,1.29811 62.155888,62.155935 0 0 0 1.52756,4.59817 62.155888,62.155935 0 0 0 2.53783,5.67097 62.155888,62.155935 0 0 0 3.09128,5.38933 62.155888,62.155935 0 0 0 1.61541,2.25929 62.155888,62.155935 0 0 0 1.99884,2.79467 62.155888,62.155935 0 0 0 1.18546,1.34927 62.155888,62.155935 0 0 0 1.41335,1.31671 62.155888,62.155935 0 0 0 4.945948,3.75998 62.155888,62.155935 0 0 0 5.296831,3.24735 62.155888,62.155935 0 0 0 5.594498,2.70267 62.155888,62.155935 0 0 0 4.63795,1.69293 62.155888,62.155935 0 0 0 1.19838,0.43718 62.155888,62.155935 0 0 0 6.019792,1.537374 62.155888,62.155935 0 0 0 6.143289,0.92863 62.155888,62.155935 0 0 0 6.20531,0.31006 62.155888,62.155935 0 0 0 4.396629,-0.15555 62.155888,62.155935 0 0 0 3.908801,-0.47439 99.449467,99.449467 0 0 0 -4.923719,-8.584494 99.449467,99.449467 0 0 0 -1.1958,-1.67225 99.449467,99.449467 0 0 0 -3.45353,-4.82916 99.449464,99.449464 0 0 0 -1.133271,-1.5844 99.449464,99.449464 0 0 0 -6.560841,-7.46828 99.449464,99.449464 0 0 0 -7.273459,-6.77581 99.449464,99.449464 0 0 0 -7.91373,-6.01617 99.449464,99.449464 0 0 0 -6.7231,-4.12223 99.449464,99.449464 0 0 0 -0.31057,-0.19017 24.862349,24.862342 0 0 1 -1.08779,-0.0543 24.862349,24.862342 0 0 1 -2.45722,-0.37155 24.862349,24.862342 0 0 1 -2.408118,-0.61495 24.862349,24.862342 0 0 1 -2.33474,-0.85215 24.862349,24.862342 0 0 1 -2.23759,-1.08107 24.862349,24.862342 0 0 1 -2.11873,-1.29863 24.862349,24.862342 0 0 1 -1.97818,-1.5043 24.862349,24.862342 0 0 1 -0.23719,-0.22066 24.862349,24.862342 0 0 1 -1.48312,-1.38182 24.862349,24.862342 0 0 1 -0.0982,-0.0915 24.862349,24.862342 0 0 1 -1.64021,-1.86707 24.862349,24.862342 0 0 1 -1.44539,-2.02159 24.862349,24.862342 0 0 1 -1.23662,-2.15542 24.862349,24.862342 0 0 1 -1.015439,-2.2686 24.862349,24.862342 0 0 1 -0.78341,-2.35851 24.862349,24.862342 0 0 1 -0.54467,-2.42466 24.862349,24.862342 0 0 1 -0.29921,-2.46703 24.862349,24.862342 0 0 1 -0.0625,-1.75907 24.862349,24.862342 0 0 1 0.124539,-2.48201 24.862349,24.862342 0 0 1 0.17105,-1.13379 z"
       id="path1485"
       inkscape:connector-curvature="0" />
    <path
       style="opacity:1;fill:url(#linearGradient1542);fill-opacity:1;stroke:none;stroke-width:0.52916664;stroke-miterlimit:4;stroke-dasharray:none;stroke-opacity:1"
       d="m 178.07597,76.292586 a 99.449467,99.449467 0 0 0 -0.39223,0.1757 99.449467,99.449467 0 0 0 -8.62273,4.94595 99.449467,99.449467 0 0 0 -8.08632,5.78259 99.449467,99.449467 0 0 0 -7.46828,6.56085 99.449467,99.449467 0 0 0 -6.77582,7.273454 99.449467,99.449467 0 0 0 -6.01617,7.91373 99.449467,99.449467 0 0 0 -5.19606,8.47494 99.449467,99.449467 0 0 0 -4.32377,8.95087 99.449467,99.449467 0 0 0 -2.03812,5.58415 99.449467,99.449467 0 0 0 -1.37046,3.75429 99.449467,99.449467 0 0 0 -0.87798,3.43855 99.449467,99.449467 0 0 0 -1.5813,6.19291 99.449467,99.449467 0 0 0 -1.4857,9.82937 99.449467,99.449467 0 0 0 -0.49712,9.92859 99.449467,99.449467 0 0 0 0.24959,7.03471 99.449467,99.449467 0 0 0 1.19786,9.86814 99.449467,99.449467 0 0 0 2.17713,9.69967 99.449467,99.449467 0 0 0 3.13418,9.43355 99.449467,99.449467 0 0 0 4.06073,9.07386 99.449467,99.449467 0 0 0 1.65985,2.89337 37.293542,37.29351 0 0 0 0.0145,-0.002 37.293542,37.29351 0 0 0 0.22892,-0.0512 99.449467,99.449467 0 0 1 -2.22209,-4.96559 99.449467,99.449467 0 0 1 -3.13468,-9.43353 99.449467,99.449467 0 0 1 -2.17714,-9.69969 99.449467,99.449467 0 0 1 -1.19785,-9.86813 99.449467,99.449467 0 0 1 -0.24909,-7.03471 99.449467,99.449467 0 0 1 0.49714,-9.9286 99.449467,99.449467 0 0 1 1.48518,-9.82885 99.449467,99.449467 0 0 1 2.45978,-9.63197 99.449467,99.449467 0 0 1 1.25523,-3.43804 99.449467,99.449467 0 0 1 1.08107,-2.96209 99.449467,99.449467 0 0 1 1.07229,-2.93781 99.449467,99.449467 0 0 1 4.32376,-8.95138 99.449467,99.449467 0 0 1 5.19606,-8.47494 99.449467,99.449467 0 0 1 6.01617,-7.91372 99.449467,99.449467 0 0 1 6.77582,-7.27346 99.449467,99.449467 0 0 1 7.46828,-6.560844 99.449467,99.449467 0 0 1 8.08581,-5.78208 99.449467,99.449467 0 0 1 8.62325,-4.94646 99.449467,99.449467 0 0 1 3.04891,-1.36426 37.293542,37.29351 0 0 0 -1.13429,-1.2914 37.293542,37.29351 0 0 0 -2.7275,-2.54093 37.293542,37.29351 0 0 0 -2.53679,-1.92805 z"
       id="path1457"
       inkscape:connector-curvature="0" />
    <path
       style="opacity:1;fill:url(#linearGradient1562);fill-opacity:1;stroke:none;stroke-width:0.52916664;stroke-miterlimit:4;stroke-dasharray:none;stroke-opacity:1"
       d="m 147.28621,70.851886 a 37.293542,37.29351 0 0 0 -0.40773,0.0915 37.293542,37.29351 0 0 0 -3.53725,1.17564 37.293542,37.29351 0 0 0 -3.40289,1.5229 37.293542,37.29351 0 0 0 -0.29973,0.17208 37.293542,37.29351 0 0 0 -2.93367,1.68259 37.293542,37.29351 0 0 0 -2.78226,1.98954 37.293542,37.29351 0 0 0 -0.25011,0.1788 37.293542,37.29351 0 0 0 -2.80035,2.46032 37.293542,37.29351 0 0 0 -2.54093,2.72748 37.293542,37.29351 0 0 0 -1.41438,1.86087 62.155888,62.155935 0 0 1 -2.4629,2.16317 62.155888,62.155935 0 0 1 -1.67483,1.19786 62.155888,62.155935 0 0 1 0.73122,2.19987 62.155888,62.155935 0 0 1 0.84232,2.53576 62.155888,62.155935 0 0 1 0.39068,1.73995 62.155888,62.155935 0 0 1 0.51314,2.28719 62.155888,62.155935 0 0 1 0.45682,2.03502 62.155888,62.155935 0 0 1 0.7488,6.167594 62.155888,62.155935 0 0 1 0.0165,0.46767 62.155888,62.155935 0 0 0 3.32383,-2.91972 62.155888,62.155935 0 0 0 4.23488,-4.545984 62.155888,62.155935 0 0 0 3.75998,-4.94595 62.155888,62.155935 0 0 0 3.24735,-5.29683 62.155888,62.155935 0 0 0 2.70268,-5.59449 62.155888,62.155935 0 0 0 2.1301,-5.83634 62.155888,62.155935 0 0 0 0.56224,-2.20193 62.155888,62.155935 0 0 0 0.84646,-3.31453 z"
       id="path1431"
       inkscape:connector-curvature="0" />
    <path
       style="opacity:1;fill:url(#linearGradient1568);fill-opacity:1;stroke:none;stroke-width:0.52916664;stroke-miterlimit:4;stroke-dasharray:none;stroke-opacity:1"
       d="m 35.943872,94.796066 a 62.155888,62.155935 0 0 0 1.73219,2.4226 62.155888,62.155935 0 0 0 4.10052,4.667934 62.155888,62.155935 0 0 0 4.54598,4.23488 62.155888,62.155935 0 0 0 4.94595,3.75998 62.155888,62.155935 0 0 0 5.296829,3.24734 62.155888,62.155935 0 0 0 5.59449,2.70268 62.155888,62.155935 0 0 0 4.639,1.69292 37.293542,37.29351 0 0 1 3.181721,0.81235 37.293542,37.29351 0 0 1 1.19992,0.43822 62.155888,62.155935 0 0 0 2.835489,0.72399 62.155888,62.155935 0 0 0 6.143289,0.92862 62.155888,62.155935 0 0 0 6.20531,0.31006 62.155888,62.155935 0 0 0 4.396631,-0.15554 62.155888,62.155935 0 0 0 6.167581,-0.7488 62.155888,62.155935 0 0 0 4.285008,-0.9617 99.449469,99.449469 0 0 0 -0.007,-0.0295 99.449469,99.449469 0 0 0 -3.101098,-9.33276 62.155888,62.155935 0 0 1 -4.881359,1.09554 62.155888,62.155935 0 0 1 -6.16758,0.74879 62.155888,62.155935 0 0 1 -4.39715,0.15555 62.155888,62.155935 0 0 1 -6.204781,-0.31006 62.155888,62.155935 0 0 1 -6.143299,-0.92862 62.155888,62.155935 0 0 1 -6.01979,-1.53738 62.155888,62.155935 0 0 1 -5.83633,-2.1301 62.155888,62.155935 0 0 1 -5.59449,-2.70268 62.155888,62.155935 0 0 1 -5.29684,-3.24735 62.155888,62.155935 0 0 1 -4.94595,-3.759974 62.155888,62.155935 0 0 1 -0.18138,-0.16898 62.155888,62.155935 0 0 1 -4.03645,-1.03095 62.155888,62.155935 0 0 1 -2.45669,-0.8971 z"
       id="path1353"
       inkscape:connector-curvature="0" />
    <path
       style="opacity:1;fill:url(#linearGradient1566);fill-opacity:1;stroke:none;stroke-width:0.52916664;stroke-miterlimit:4;stroke-dasharray:none;stroke-opacity:1"
       d="m 23.412332,68.095386 a 62.155888,62.155935 0 0 0 1.3162,3.96152 62.155888,62.155935 0 0 0 2.47685,5.53455 62.155888,62.155935 0 0 0 0.061,0.13642 62.155888,62.155935 0 0 0 3.091291,5.38934 62.155888,62.155935 0 0 0 3.614249,5.05395 62.155888,62.155935 0 0 0 4.10052,4.66793 62.155888,62.155935 0 0 0 4.36459,4.0659 62.155888,62.155935 0 0 0 0.18138,0.16898 62.155888,62.155935 0 0 0 4.94595,3.759984 62.155888,62.155935 0 0 0 5.296838,3.24735 62.155888,62.155935 0 0 0 5.594491,2.70268 62.155888,62.155935 0 0 0 5.83633,2.1301 62.155888,62.155935 0 0 0 6.019789,1.53737 62.155888,62.155935 0 0 0 6.143302,0.92863 62.155888,62.155935 0 0 0 6.204778,0.31006 62.155888,62.155935 0 0 0 4.397151,-0.15555 62.155888,62.155935 0 0 0 6.16758,-0.74879 62.155888,62.155935 0 0 0 4.881359,-1.09554 99.449461,99.449461 0 0 0 -0.0336,-0.10129 99.449461,99.449461 0 0 0 -1.119309,-2.50114 99.449464,99.449464 0 0 0 -2.94142,-6.57221 99.449464,99.449464 0 0 0 -0.0222,-0.0388 62.155888,62.155935 0 0 1 -3.908801,0.47439 62.155888,62.155935 0 0 1 -4.396631,0.15555 62.155888,62.155935 0 0 1 -6.205308,-0.31006 62.155888,62.155935 0 0 1 -6.143291,-0.928624 62.155888,62.155935 0 0 1 -6.01979,-1.53738 62.155888,62.155935 0 0 1 -1.19838,-0.43718 62.155888,62.155935 0 0 1 -4.63795,-1.69292 62.155888,62.155935 0 0 1 -5.5945,-2.70268 62.155888,62.155935 0 0 1 -5.296828,-3.24734 62.155888,62.155935 0 0 1 -4.94595,-3.75998 62.155888,62.155935 0 0 1 -1.41335,-1.31672 62.155888,62.155935 0 0 1 -1.18546,-1.34927 62.155888,62.155935 0 0 1 -1.99884,-2.79466 62.155888,62.155935 0 0 1 -1.78077,-0.86041 62.155888,62.155935 0 0 1 -0.57671,-0.27854 62.155888,62.155935 0 0 1 -5.29683,-3.24734 62.155888,62.155935 0 0 1 -4.94595,-3.7605 62.155888,62.155935 0 0 1 -3.20239,-2.98328 62.155888,62.155935 0 0 1 -1.34359,-1.2516 62.155888,62.155935 0 0 1 -0.48575,-0.55294 z"
       id="path1359"
       inkscape:connector-curvature="0" />
    <path
       style="opacity:1;fill:url(#linearGradient1560);fill-opacity:1;stroke:none;stroke-width:0.52916664;stroke-miterlimit:4;stroke-dasharray:none;stroke-opacity:1"
       d="m 54.308471,59.463226 a 99.449467,99.449467 0 0 1 6.7231,4.12223 99.449467,99.449467 0 0 1 7.91373,6.01617 99.449467,99.449467 0 0 1 7.273451,6.77581 99.449467,99.449467 0 0 1 6.560849,7.46828 99.449467,99.449467 0 0 1 1.133261,1.5844 99.449467,99.449467 0 0 1 3.45354,4.82916 99.449464,99.449464 0 0 1 1.19579,1.67225 99.449464,99.449464 0 0 1 4.923729,8.584494 99.449464,99.449464 0 0 1 0.0222,0.0388 99.449464,99.449464 0 0 1 2.941418,6.57221 99.449464,99.449464 0 0 1 1.119312,2.50114 99.449464,99.449464 0 0 1 0.0336,0.10129 99.449464,99.449464 0 0 1 3.101109,9.33276 99.449464,99.449464 0 0 1 0.007,0.0295 99.449461,99.449461 0 0 1 2.17041,9.66969 99.449461,99.449461 0 0 1 1.19786,9.86865 99.449461,99.449461 0 0 1 0.24908,7.03471 99.449461,99.449461 0 0 1 -0.2005,4.00596 99.449461,99.449461 0 0 1 -0.29611,5.92211 99.449461,99.449461 0 0 1 -0.28783,1.90428 62.155888,62.155935 0 0 0 0.64853,-0.85318 62.155888,62.155935 0 0 0 3.24735,-5.29631 62.155888,62.155935 0 0 0 2.70268,-5.59449 62.155888,62.155935 0 0 0 0.23874,-0.65371 62.155888,62.155935 0 0 0 1.89136,-5.18263 62.155888,62.155935 0 0 0 1.53738,-6.01979 62.155888,62.155935 0 0 0 0.9281,-6.14329 62.155888,62.155935 0 0 0 0.31058,-6.2053 62.155888,62.155935 0 0 0 -0.15555,-4.39663 62.155888,62.155935 0 0 0 -0.39015,-3.21273 62.155888,62.155935 0 0 0 -0.35864,-2.95537 62.155888,62.155935 0 0 0 -1.36064,-6.06216 62.155888,62.155935 0 0 0 -0.37672,-1.13327 62.155888,62.155935 0 0 0 -0.0548,-0.16433 62.155888,62.155935 0 0 0 -1.52755,-4.598174 62.155888,62.155935 0 0 0 -1.30483,-2.9161 62.155888,62.155935 0 0 0 -1.233,-2.75487 62.155888,62.155935 0 0 0 -3.09129,-5.38934 62.155888,62.155935 0 0 0 -3.61425,-5.05395 62.155888,62.155935 0 0 0 -1.785421,-2.03192 62.155888,62.155935 0 0 0 -1.272268,-1.44849 62.155888,62.155935 0 0 0 -1.042831,-1.187 62.155888,62.155935 0 0 0 -4.545971,-4.23541 62.155888,62.155935 0 0 0 -4.945959,-3.75997 62.155888,62.155935 0 0 0 -5.296829,-3.24735 62.155888,62.155935 0 0 0 -5.59449,-2.70267 62.155888,62.155935 0 0 0 -5.836341,-2.13011 62.155888,62.155935 0 0 0 -6.019789,-1.53737 62.155888,62.155935 0 0 0 -6.143292,-0.92811 62.155888,62.155935 0 0 0 -4.788849,-0.23978 z"
       id="path1383"
       inkscape:connector-curvature="0" />
  </g>
</svg>
