<?xml version="1.0" encoding="iso-8859-1"?>
<!-- Generator: Adobe Illustrator 19.0.0, SVG Export Plug-In . SVG Version: 6.00 Build 0)  -->
<svg version="1.1" id="Capa_1" xmlns="http://www.w3.org/2000/svg" xmlns:xlink="http://www.w3.org/1999/xlink" x="0px" y="0px"
	 viewBox="0 0 496 496" style="enable-background:new 0 0 496 496;" xml:space="preserve">
<g>
	<g>
		<g>
			<path d="M200,24h-25.008C171.424,10.216,158.88,0,144,0H80C65.12,0,52.576,10.216,49.008,24H24C10.768,24,0,34.768,0,48v48
				c0,13.232,10.768,24,24,24h25.008C52.576,133.784,65.12,144,80,144v193.472c-9.288,3.312-16,12.112-16,22.528v112
				c0,13.232,10.768,24,24,24h48c13.232,0,24-10.768,24-24V360c0-10.416-6.712-19.216-16-22.528V144
				c14.88,0,27.424-10.216,30.992-24H200c13.232,0,24-10.768,24-24V48C224,34.768,213.232,24,200,24z M144,472c0,4.408-3.592,8-8,8
				H88c-4.408,0-8-3.592-8-8V360c0-4.408,3.592-8,8-8h48c4.408,0,8,3.592,8,8V472z M96,336V144h32v192H96z M208,96
				c0,4.408-3.592,8-8,8h-40v8c0,8.824-7.176,16-16,16H80c-8.824,0-16-7.176-16-16v-8H24c-4.408,0-8-3.592-8-8V48
				c0-4.408,3.592-8,8-8h40v-8c0-8.824,7.176-16,16-16h64c8.824,0,16,7.176,16,16v8h40c4.408,0,8,3.592,8,8V96z"/>
			<rect x="112" y="448" width="16" height="16"/>
			<rect x="112" y="368" width="16" height="64"/>
			<path d="M479.496,34.128C439.312,11.8,393.776,0,347.808,0H296c-13.232,0-24,10.768-24,24v64c0,13.232,10.768,24,24,24h24
				v241.472c-9.288,3.312-16,12.112-16,22.528v96c0,13.232,10.768,24,24,24h48c13.232,0,24-10.768,24-24v-96
				c0-10.416-6.712-19.216-16-22.528V109.6c38.312-5.048,75.2-18.168,108.24-38.816l3.76-2.352V43.296L479.496,34.128z M384,448h-16
				v16h16v8c0,4.408-3.592,8-8,8h-48c-4.408,0-8-3.592-8-8v-8h32v-16h-32v-16h64V448z M384,416h-64v-16h64V416z M384,384h-64v-8
				c0-4.408,3.592-8,8-8h48c4.408,0,8,3.592,8,8V384z M336,352V112h12.528c6.512,0,13.008-0.248,19.472-0.712V352H336z M480,59.52
				C440.288,83.4,394.936,96,348.528,96H296c-4.408,0-8-3.592-8-8V24c0-4.408,3.592-8,8-8h51.808
				c43.256,0,86.104,11.104,123.92,32.112L480,52.704V59.52z"/>
			<path d="M351.872,48.032c23.68,0.368,47.184,4.04,69.872,10.912l4.632-15.312c-24.104-7.296-49.088-11.2-74.256-11.6
				L351.872,48.032z"/>
			<rect x="320" y="32" width="16" height="16"/>
			<rect x="48" y="56" width="16" height="32"/>
			<rect x="160" y="56" width="16" height="32"/>
		</g>
	</g>
</g>
<g>
</g>
<g>
</g>
<g>
</g>
<g>
</g>
<g>
</g>
<g>
</g>
<g>
</g>
<g>
</g>
<g>
</g>
<g>
</g>
<g>
</g>
<g>
</g>
<g>
</g>
<g>
</g>
<g>
</g>
</svg>
