<?xml version="1.0" standalone="yes"?>

<svg version="1.1" viewBox="0.0 0.0 960.0 960.0" fill="none" stroke="none" stroke-linecap="square" stroke-miterlimit="10" xmlns="http://www.w3.org/2000/svg" xmlns:xlink="http://www.w3.org/1999/xlink"><clipPath id="p.0"><path d="m0 0l960.0 0l0 960.0l-960.0 0l0 -960.0z" clip-rule="nonzero"></path></clipPath><g clip-path="url(#p.0)"><path fill="#000000" fill-opacity="0.0" d="m0 0l960.0 0l0 960.0l-960.0 0z" fill-rule="evenodd"></path><path fill="#b7b7b7" d="m481.1541 -0.28464708l-479.70416 0l95.94083 823.35223l384.3299 137.19537z" fill-rule="evenodd"></path><path fill="#d9d9d9" d="m479.13232 -0.28464708l479.70416 0l-95.94086 823.35223l-384.3299 137.19537z" fill-rule="evenodd"></path><path fill="#000000" fill-opacity="0.1962" d="m847.19244 96.333336l92.15936 77.05843l-11.993713 89.33809l-9.001648 95.77365l-11.993774 108.637695l-25.477905 195.82712l-17.992432 160.09052l-323.7975 114.355835l-146.19522 -105.22925l7.632019 -263.206l-111.455536 -472.6461l278.50336 230.71689l246.12946 -230.71689z" fill-rule="evenodd"></path><path fill="#f3f3f3" d="m108.47996 99.919914l284.4785 468.21918l0 255.14069l167.34027 0l0 -256.24762l287.15588 -467.11224l-175.37256 0l-134.54163 220.27332l-58.903748 112.9039l-58.903778 -109.58322l-128.51733 -223.594z" fill-rule="evenodd"></path><path stroke="#999999" stroke-width="4.0" stroke-linejoin="round" stroke-linecap="butt" d="m108.47996 99.919914l284.4785 468.21918l0 255.14069l167.34027 0l0 -256.24762l287.15588 -467.11224l-175.37256 0l-134.54163 220.27332l-58.903748 112.9039l-58.903778 -109.58322l-128.51733 -223.594z" fill-rule="evenodd"></path></g></svg>

